# xmcd CD database file
#
# Track frame offsets:
#	150
#	2060
#	13082
#	29875
#	47415
#	63270
#	78090
#	92925
#	112262
#	124507
#	133818
#	143620
#	149415
#	162532
#
# Disc length: 2806 seconds
#
# Revision: 71
# Processed by: cddbd v1.5.2PL0 Copyright (c) Steve Scherf et al.
# Submitted via: CDex 1.70beta2
#
DISCID=c30af40e
DTITLE=THE OFFSPRING - SMASH
DYEAR=1994
DGENRE=Punk Rock
TTITLE0=Time To Relax
TTITLE1=Nitro (Youth Energy)
TTITLE2=Bad Habit
TTITLE3=Gotta Get Away
TTITLE4=Genocide
TTITLE5=Something To Believe In
TTITLE6=Come Out and Play
TTITLE7=Self Esteem
TTITLE8=It'll Be A Long Time
TTITLE9=Killboy Powerhead
TTITLE10=What Happened To You?
TTITLE11=So Alone
TTITLE12=Not The One
TTITLE13=Smash
EXTD=YEAR: 1994
EXTT0=
EXTT1=
EXTT2=
EXTT3=
EXTT4=
EXTT5=
EXTT6=
EXTT7=
EXTT8=
EXTT9=
EXTT10=
EXTT11=
EXTT12=
EXTT13=
PLAYORDER=
